<?xml version="1.0" encoding="utf-8"?>
<!-- Generator: Adobe Illustrator 15.0.2, SVG Export Plug-In . SVG Version: 6.00 Build 0)  -->
<!DOCTYPE svg PUBLIC "-//W3C//DTD SVG 1.1//EN" "http://www.w3.org/Graphics/SVG/1.1/DTD/svg11.dtd">
<svg version="1.1" class="list-number" xmlns="http://www.w3.org/2000/svg" xmlns:xlink="http://www.w3.org/1999/xlink" x="0px" y="0px" width="65px" height="65px" viewBox="0 0 65 65" enable-background="new 0 0 65 65" xml:space="preserve">
<path class="circle" fill="#CCCCCC" d="M32.484,47.771c-2.057,0-4-0.457-5.714-1.486c-2.971-1.715-5.143-4.686-5.6-8.113 c-0.229-1.486,0.8-2.857,2.4-3.086c1.484-0.229,2.856,0.8,3.084,2.4c0.229,1.714,1.258,3.199,2.743,4 c1.486,0.799,3.543,1.027,5.485,0.342c1.829-0.57,3.314-1.942,3.543-3.428c0.229-1.373-0.57-2.629-1.485-3.314 c-1.257-1.029-3.085-1.715-5.028-2.4c-1.256-0.457-2.057-1.714-1.828-3.085c0.228-1.371,1.371-2.286,2.742-2.286l0,0 c1.258,0,2.629-1.029,3.086-2.171c0.344-1.143,0-2.4-0.801-2.972c-0.914-0.572-2.514-0.343-3.428,0.571 c-1.143,1.029-2.857,0.915-3.886-0.229c-1.029-1.143-0.915-2.857,0.229-3.886c2.742-2.514,6.971-2.971,10.057-1.143 c3.086,1.943,4.343,6.057,3.086,9.486c-0.457,1.143-1.028,2.057-1.829,2.971c0.458,0.343,0.915,0.571,1.258,0.914 c2.629,2.287,3.886,5.486,3.313,8.572c-0.686,3.313-3.543,6.286-7.313,7.543C35.228,47.543,33.856,47.771,32.484,47.771z"/>
<path class="number" fill="#CCCCCC" d="M31.913,61.943c-0.572,0-1.258,0-1.83,0c-9.028-0.572-17.143-5.258-22.17-12.916 C4.027,42.971,2.998,36.229,4.94,29.371c1.143-4.114,3.314-8.114,6.057-11.657c-0.571-0.343-1.028-0.8-1.257-1.372 c-0.572-1.371,0.114-2.971,1.485-3.657c2.4-0.914,4.572-1.714,6.743-2.4c3.886-3.429,8-6.171,11.771-7.886 c1.371-0.686,2.971-0.114,3.657,1.372c0.687,1.372,0.114,3.085-1.371,3.657c-0.571,0.229-1.028,0.457-1.6,0.8 c2.057-0.114,4.228-0.114,6.628,0c10.857,0.457,20.113,8,23.086,18.857c2.285,8,0,17.485-5.715,24.114 C48.827,58.057,40.599,61.943,31.913,61.943z M20.713,15.2c-4.8,4.457-8.8,9.943-10.4,15.657c-1.486,5.372-0.8,10.401,2.286,15.086 c4,6.171,10.514,10.057,17.829,10.514c7.542,0.457,14.856-2.742,20-8.686c4.457-5.258,6.286-12.914,4.571-19.086 c-2.399-8.457-9.601-14.4-18.058-14.857C30.655,13.372,25.855,13.829,20.713,15.2z"/>
</svg>
