<?xml version="1.0" encoding="utf-8"?>
<!-- Generator: Adobe Illustrator 15.0.2, SVG Export Plug-In . SVG Version: 6.00 Build 0)  -->
<!DOCTYPE svg PUBLIC "-//W3C//DTD SVG 1.1//EN" "http://www.w3.org/Graphics/SVG/1.1/DTD/svg11.dtd">
<svg version="1.1" class="list-number" xmlns="http://www.w3.org/2000/svg" xmlns:xlink="http://www.w3.org/1999/xlink" x="0px" y="0px" width="65px" height="65px" viewBox="0 0 65 65" enable-background="new 0 0 65 65" xml:space="preserve">
  <path class="circle" fill="#CCCCCC" d="M33.265,59.43c-2.17,0-4.342-0.229-6.399-0.688c-7.886-1.6-14.515-6.172-18.629-12.799 c-4.343-6.973-4.457-16.687-0.229-23.772c2.4-4,5.143-7.314,8.458-10.057c-0.229-0.229-0.458-0.571-0.572-0.914 c-0.571-1.372,0-3.086,1.486-3.657c3.771-1.6,7.657-2.286,11.543-2.171c0.799-0.229,1.484-0.458,2.285-0.686 c1.258-0.343,2.514,0.229,3.085,1.257c9.485,1.714,17.942,7.085,22.286,12.114c7.428,8.457,7.314,22.743-0.113,31.314 C50.865,55.771,42.179,59.43,33.265,59.43z M29.494,11.086c-7.429,2.743-12.686,7.085-16.8,13.942 c-3.086,5.257-3.086,12.687,0.229,17.943c3.314,5.372,8.685,9.029,15.085,10.287c9.143,1.828,18.627-1.144,24.342-7.658 c5.601-6.398,5.601-17.6,0.115-24C48.009,16.686,38.753,11.543,29.494,11.086z"/>
  <path class="number" fill="#CCCCCC" d="M42.98,45.258L42.98,45.258H24.009c-1.028,0-2.058-0.572-2.515-1.601c-0.457-1.029-0.343-2.171,0.343-2.972 c3.086-3.771,6.286-7.543,9.258-11.314c0.113-0.229,0.342-0.458,0.57-0.686c0.571-0.686,2.172-2.514,2.514-3.314 c0-0.114-0.229-0.343-0.342-0.343c-0.457-0.457-1.258-0.686-1.83-0.571c-0.914,0.114-1.942,0.686-2.742,1.372 c-0.229,0.8-0.801,1.486-1.601,1.829l-1.143,0.457c-1.257,0.571-2.628,0.114-3.314-1.028c-0.686-1.143-0.571-2.515,0.343-3.543 c2.172-2.171,4.571-4.229,7.771-4.686c2.171-0.343,4.572,0.343,6.286,1.829c1.485,1.257,2.286,2.972,2.171,4.686 c0,2.057-1.714,4.229-3.771,6.743c-0.229,0.229-0.342,0.457-0.457,0.571c-1.828,2.286-3.656,4.572-5.6,6.857h13.029 c1.484,0,2.742,1.257,2.742,2.742C45.722,44,44.466,45.258,42.98,45.258z"/>
</svg>
