<?xml version="1.0" encoding="utf-8"?>
<!-- Generator: Adobe Illustrator 15.0.2, SVG Export Plug-In . SVG Version: 6.00 Build 0)  -->
<!DOCTYPE svg PUBLIC "-//W3C//DTD SVG 1.1//EN" "http://www.w3.org/Graphics/SVG/1.1/DTD/svg11.dtd">
<svg version="1.1" class="list-number" xmlns="http://www.w3.org/2000/svg" xmlns:xlink="http://www.w3.org/1999/xlink" x="0px" y="0px"
   width="65px" height="65px" viewBox="0 0 65 65" enable-background="new 0 0 65 65" xml:space="preserve">
<path class="circle" fill="#CCCCCC" d="M33.289,59.43c-0.571,0-1.143,0-1.714,0c-12.8-0.801-23.086-8.916-26.172-20.572
  c-1.714-6.171-0.914-13.714,1.943-19.885c-1.028,0.229-2.171-0.115-2.857-1.029c-0.914-1.257-0.686-2.971,0.571-3.886
  C8.489,11.543,12.489,9.372,16.718,8c2.4-1.6,5.029-2.743,7.771-3.429c1.143-0.229,2.286,0.343,2.973,1.257
  C36.375,5.372,45.517,8,52.489,15.2c3.314,3.428,8.8,10.514,8.57,19.886c-0.113,6.285-2.742,12-7.656,16.457
  C48.146,56.57,40.489,59.43,33.289,59.43z M19.232,13.028c-2.286,1.6-4.229,3.657-5.714,6.172c-3.2,5.371-4.343,12.571-2.743,18.399
  c2.514,9.258,10.856,15.771,21.144,16.344c6.285,0.457,13.143-2.059,17.828-6.286c2.628-2.399,5.715-6.515,5.828-12.457
  c0.114-7.314-4.344-13.143-7.086-16C40.489,10.857,29.06,9.829,19.232,13.028z"/>
<path class="number" fill="#CCCCCC" d="M32.261,47.886c-0.229,0-0.571,0-0.801-0.114c-1.486-0.457-2.285-1.942-1.828-3.429
  c1.6-5.37,3.428-13.714,4.228-20.571L30.203,25.6c-0.114,0.114-0.229,0.229-0.457,0.229l-0.571,0.343
  c-1.371,0.686-2.972,0.114-3.658-1.257c-0.686-1.371-0.113-2.971,1.144-3.657l9.029-4.8C36.604,16,37.632,16,38.433,16.571
  c0.799,0.572,1.371,1.486,1.257,2.4c-0.229,8.114-2.63,19.886-4.8,26.856C34.546,47.086,33.517,47.886,32.261,47.886z"/>
</svg>
