<?xml version="1.0" encoding="utf-8"?>
<!-- Generator: Adobe Illustrator 15.0.2, SVG Export Plug-In . SVG Version: 6.00 Build 0)  -->
<!DOCTYPE svg PUBLIC "-//W3C//DTD SVG 1.1//EN" "http://www.w3.org/Graphics/SVG/1.1/DTD/svg11.dtd">
<svg version="1.1" class="list-number" xmlns="http://www.w3.org/2000/svg" xmlns:xlink="http://www.w3.org/1999/xlink" x="0px" y="0px"
	 width="65px" height="65px" viewBox="0 0 65 65" enable-background="new 0 0 65 65" xml:space="preserve">
<path class="circle" fill="#CCCCCC" d="M41.941,29.028c-0.799,0-1.688,0-2.622,0.003c0.608-3.441,1.188-6.882,1.706-10.289
	c0.229-1.485-0.799-2.857-2.285-3.085c-1.485-0.229-2.855,0.8-3.085,2.286c-0.612,3.724-1.255,7.446-1.921,11.162
	c-0.43,0.011-0.856,0.024-1.279,0.039c-1.829,0-3.657,0.114-5.372,0.114c0.687-1.372,1.372-2.743,2.058-4.114
	c0.342-0.343,0.686-0.8,0.799-1.257l0.115-0.571c0.457-1.257-0.229-2.629-1.486-3.2c-1.258-0.571-2.743,0-3.43,1.143
	c-1.828,3.085-3.313,6.4-4.57,9.829C20.341,32,20.455,32.914,20.912,33.6c0.457,0.687,1.257,1.144,2.171,1.144
	c0.114,0,0.114,0,0.229,0c2.515,0,5.942-0.113,9.257-0.113c0.046,0,0.093,0,0.139-0.001c-0.655,3.439-1.338,6.873-2.082,10.286
	c-0.343,1.485,0.571,2.856,2.058,3.2c0.229,0.113,0.342,0.113,0.57,0.113c1.145,0,2.286-0.799,2.743-2.285
	c0.817-3.748,1.582-7.562,2.31-11.387c1.229-0.022,2.385-0.043,3.405-0.043c0.113,0,0.113,0,0.229,0
	c1.484,0,2.742-1.256,2.742-2.742S43.428,29.028,41.941,29.028z"/>
<path class="number" fill="#CCCCCC" d="M31.77,60c-2.058,0-4.114-0.229-6.172-0.57C14.626,57.143,5.827,48.572,4.112,38.514
	c-1.257-7.885,1.829-17.142,7.429-23.885c-1.257,0.229-2.629-0.457-3.086-1.829c-0.457-1.371,0.229-2.971,1.714-3.428
	c4.343-1.486,8.571-2.515,12.8-3.2c3.657-1.486,8.687-2.857,12.229-1.943c0.688,0.229,1.372,0.686,1.715,1.257
	C47.655,6.628,56.684,12.8,59.541,21.257c3.428,9.943,1.371,20.687-5.6,28.687C48.112,56.457,40.112,60,31.77,60z M24.227,11.429
	c-0.801,0.343-1.601,0.686-2.287,1.143c-8.229,4.8-13.942,16.229-12.571,25.144c1.257,7.771,8.458,14.742,17.144,16.457
	c8.685,1.714,17.256-1.144,23.084-7.657C55.312,40,57.025,31.314,54.17,23.2c-2.742-8.229-12.688-12.458-21.145-12.458
	c-0.113,0-0.113,0-0.229,0C29.941,10.743,27.198,10.972,24.227,11.429z"/>
</svg>
