<?xml version="1.0" encoding="utf-8"?>
<!-- Generator: Adobe Illustrator 15.0.2, SVG Export Plug-In  -->
<!DOCTYPE svg PUBLIC "-//W3C//DTD SVG 1.1//EN" "http://www.w3.org/Graphics/SVG/1.1/DTD/svg11.dtd" [
	<!ENTITY ns_flows "http://ns.adobe.com/Flows/1.0/">
]>
<svg version="1.1"
	 xmlns="http://www.w3.org/2000/svg" xmlns:xlink="http://www.w3.org/1999/xlink" xmlns:a="http://ns.adobe.com/AdobeSVGViewerExtensions/3.0/"
	 x="0px" y="0px" width="703px" height="560px" viewBox="0 0 703 560" overflow="visible" enable-background="new 0 0 703 560"
	 xml:space="preserve">
<defs>
</defs>
<path opacity="0.2" fill="#F2B9CF" d="M693.521,134.916c-7.592-4.146-17.141-1.345-21.286,6.246c-0.82,1.5-1.355,3.075-1.651,4.673
	l-52.351-6.534c-0.273-1.678-0.809-3.34-1.66-4.918c-0.619-1.147-1.374-2.172-2.214-3.095l64.163-56.345
	c3.916,2.446,8.861,3.166,13.54,1.509c8.154-2.881,12.444-11.859,9.562-20.016c-2.88-8.155-11.861-12.443-20.014-9.562
	c-8.156,2.883-12.447,11.863-9.564,20.019c0.57,1.611,1.385,3.06,2.377,4.348l-64.506,56.643c-4.442-2.269-9.887-2.397-14.598,0.145
	c-4.271,2.305-7.042,6.321-7.928,10.742l-52.696-1.942c-0.311-1.312-0.777-2.609-1.446-3.853
	c-4.109-7.611-13.643-10.463-21.254-6.355c-7.61,4.107-10.461,13.641-6.353,21.253c1.761,3.262,4.521,5.643,7.697,6.984
	l-9.109,20.812c-3.389-0.623-7.001-0.151-10.264,1.61c-7.614,4.107-10.463,13.642-6.354,21.253
	c4.107,7.612,13.639,10.463,21.251,6.354c7.61-4.106,10.462-13.641,6.354-21.25c-1.405-2.606-3.454-4.638-5.835-6.039l9.418-21.522
	c2.728,0.119,5.521-0.458,8.095-1.847c4.639-2.504,7.496-7.025,8.099-11.895l52.297,1.926c0.267,1.714,0.806,3.411,1.676,5.022
	c0.667,1.239,1.49,2.337,2.416,3.313L499.84,262.768c-3.885-2.123-8.633-2.613-13.087-0.923c-4.537,1.721-7.814,5.337-9.274,9.601
	l-98.407-16.94c-0.032-0.333-0.076-0.665-0.13-0.998c-0.002-0.012-0.004-0.023-0.006-0.035c-0.094-0.572-0.222-1.141-0.382-1.708
	c-0.034-0.123-0.066-0.245-0.104-0.367c-0.084-0.271-0.176-0.541-0.276-0.811c-0.011-0.03-0.02-0.061-0.031-0.091
	c-0.016-0.042-0.037-0.079-0.053-0.121c-0.112-0.291-0.214-0.583-0.345-0.871c-0.073-0.159-0.162-0.305-0.239-0.461
	c-0.007-0.015-0.016-0.029-0.023-0.044c-3.753-7.504-12.821-10.77-20.516-7.262c-4.059,1.851-6.929,5.231-8.281,9.145
	c-0.029,0.084-0.06,0.168-0.088,0.253c-0.109,0.335-0.205,0.674-0.292,1.016c-0.046,0.179-0.093,0.357-0.133,0.539
	c-0.053,0.245-0.096,0.492-0.137,0.739c-0.047,0.277-0.092,0.553-0.125,0.833c-0.017,0.148-0.026,0.296-0.039,0.445
	c-0.033,0.376-0.057,0.752-0.063,1.132c0,0.043,0.001,0.087,0.001,0.131c-0.012,1.879,0.298,3.79,1.004,5.649
	c0.021,0.056,0.049,0.108,0.071,0.165l-56.265,40.662c-0.434-0.417-0.882-0.812-1.356-1.172l23.399-42.286
	c3.589,1.155,7.598,1.045,11.291-0.64c7.87-3.587,11.355-12.906,7.767-20.777c-3.588-7.87-12.908-11.352-20.778-7.764
	c-7.87,3.586-11.354,12.906-7.765,20.778c1.083,2.375,2.694,4.343,4.626,5.846l-23.432,42.344c-0.557-0.171-1.121-0.316-1.695-0.426
	l-4.171-88.937c1.613-0.178,3.224-0.6,4.779-1.31c7.87-3.588,11.353-12.909,7.766-20.778c-0.526-1.153-1.187-2.2-1.937-3.156
	l61.846-56.863c1.666,1.137,3.576,1.971,5.672,2.4c8.472,1.735,16.779-3.746,18.517-12.219c0.024-0.129,0.035-0.255,0.058-0.386
	l69.008,0.28c0.671,6.647,5.578,12.395,12.459,13.804c8.473,1.735,16.777-3.746,18.513-12.217
	c1.739-8.474-3.74-16.779-12.217-18.517c-8.205-1.679-16.235,3.419-18.311,11.442l-69.445-0.283
	c-0.106-0.593-0.234-1.176-0.406-1.745l43.816-20.391c2.221,3.049,5.523,5.32,9.499,6.136c8.474,1.735,16.779-3.742,18.517-12.215
	c1.734-8.475-3.745-16.777-12.219-18.514c-8.471-1.735-16.775,3.743-18.511,12.214c-0.526,2.562-0.383,5.1,0.294,7.449
	l-43.879,20.419c-0.349-0.468-0.717-0.917-1.118-1.342l49.016-74.326c1.41,0.803,2.96,1.411,4.635,1.754
	c8.471,1.736,16.776-3.745,18.514-12.217c1.736-8.471-3.744-16.778-12.216-18.515c-8.473-1.734-16.776,3.747-18.517,12.219
	c-0.996,4.863,0.392,9.663,3.354,13.206l-49.194,74.589c-1.201-0.606-2.49-1.076-3.87-1.36c-1.791-0.366-3.573-0.392-5.292-0.155
	l-16.933-49.516c4.488-1.981,7.994-6.022,9.051-11.186c0.588-2.865,0.13-6.165-0.564-8.284c-0.698-2.119-2.745-4.875-2.745-4.875
	c-2.2-2.655-5.275-4.612-8.908-5.354c-8.473-1.738-16.778,3.742-18.514,12.216c-1.738,8.473,3.741,16.775,12.217,18.512
	c1.385,0.286,2.761,0.357,4.107,0.275l17.065,49.896c-3.688,1.968-6.551,5.401-7.728,9.676l-86.269-11.501
	c-0.732-4.56-3.443-8.759-7.768-11.193c-7.534-4.248-17.117-1.576-21.367,5.957c-4.249,7.535-1.574,17.12,5.957,21.367
	c7.536,4.249,17.121,1.575,21.369-5.958c0.84-1.489,1.397-3.056,1.715-4.65l85.838,11.446c0.239,2.852,1.262,5.539,2.884,7.809
	l-62.033,57.037c-4.304-2.646-9.806-3.178-14.74-0.929c-2.671,1.218-4.822,3.106-6.377,5.364l-83.698-28.015
	c0.144-4.614-1.723-9.251-5.508-12.462c-6.593-5.597-16.509-4.787-22.109,1.806c-5.598,6.593-4.785,16.513,1.806,22.107
	c6.594,5.598,16.512,4.79,22.111-1.806c1.105-1.304,1.949-2.735,2.562-4.241l82.54,27.628c-0.862,3.353-0.635,7.007,0.909,10.395
	c2.06,4.517,6.009,7.578,10.486,8.698l4.186,89.252c-1.328,0.219-2.648,0.598-3.929,1.181c-1.666,0.76-3.12,1.788-4.367,2.993
	l-42.852-30.038c2.459-4.248,2.913-9.578,0.726-14.372c-1.213-2.661-3.092-4.808-5.337-6.362l5.488-22.842
	c2.744,0.32,5.603-0.062,8.295-1.29c7.87-3.588,11.354-12.906,7.768-20.775c-3.589-7.873-12.909-11.354-20.779-7.767
	c-7.87,3.588-11.354,12.907-7.766,20.778c1.539,3.374,4.134,5.932,7.211,7.481l-5.306,22.09c-3.34-0.848-6.979-0.619-10.352,0.92
	c-5.167,2.355-8.425,7.183-9.051,12.447l-82.491-3.277c-0.137-3.58-1.484-7.131-4.086-9.976c-3.274-3.581-7.845-5.289-12.348-5.069
	L89.04,192.83c1.198-0.62,2.342-1.391,3.385-2.344c6.379-5.84,6.823-15.779,0.984-22.159c-5.84-6.381-15.781-6.821-22.162-0.982
	c-2.736,2.503-4.371,5.762-4.897,9.169l-22.405-3.763c-0.221-3.438-1.561-6.826-4.064-9.561c-5.84-6.383-15.78-6.822-22.16-0.983
	c-6.379,5.839-6.824,15.779-0.982,22.159c5.836,6.381,15.779,6.822,22.158,0.982c2.185-1.999,3.655-4.481,4.435-7.131l23.169,3.887
	c0.55,2.674,1.79,5.246,3.765,7.401c3.557,3.891,8.64,5.557,13.508,4.956l10.879,51.189c-1.595,0.675-3.112,1.611-4.462,2.846
	c-1.038,0.951-1.903,2.017-2.624,3.154l-2.093,5.083c-0.125,0.574-0.213,1.146-0.272,1.731l-48.136,4.995
	c-0.627-2.366-1.81-4.621-3.571-6.546c-5.84-6.382-15.778-6.821-22.158-0.984c-6.383,5.84-6.824,15.779-0.985,22.162
	c5.839,6.379,15.778,6.82,22.159,0.981c2.995-2.741,4.665-6.385,5.005-10.142l48.071-4.988c0.143,0.577,0.334,1.144,0.545,1.707
	l-59.455,35.884c-5.896-5.823-15.408-6.077-21.587-0.421c-6.383,5.839-6.823,15.779-0.983,22.16
	c5.838,6.38,15.779,6.823,22.159,0.982c5.183-4.741,6.446-12.189,3.611-18.24l59.081-35.659c0.086,0.102,0.162,0.205,0.25,0.302
	c5.839,6.382,15.779,6.823,22.159,0.982c2.071-1.895,3.505-4.224,4.313-6.72l83.564,3.318c0.231,0.954,0.547,1.901,0.969,2.827
	c3.588,7.869,12.908,11.35,20.778,7.763c1.286-0.586,2.44-1.336,3.479-2.196l43.182,30.269c-1.964,4.059-2.179,8.933-0.167,13.348
	c3.588,7.871,12.909,11.353,20.78,7.766c7.869-3.587,11.351-12.909,7.764-20.779c-0.055-0.119-0.123-0.229-0.181-0.347
	l55.922-40.415c1.094,1.224,2.36,2.266,3.753,3.085l-11.772,19.43c-3.278-1.066-6.921-1.071-10.389,0.242
	c-8.088,3.068-12.169,12.143-9.102,20.229c3.07,8.088,12.14,12.171,20.228,9.102c8.087-3.065,12.169-12.14,9.102-20.227
	c-1.051-2.77-2.814-5.052-4.989-6.756l12.173-20.091c2.689,0.477,5.535,0.273,8.268-0.763c3.345-1.27,5.976-3.581,7.724-6.41
	c0.051-0.081,0.1-0.163,0.148-0.245c0.21-0.354,0.411-0.713,0.592-1.083c0.071-0.144,0.133-0.291,0.2-0.437
	c0.153-0.337,0.308-0.672,0.438-1.02c0.122-0.323,0.219-0.655,0.32-0.986c0.055-0.182,0.127-0.358,0.176-0.542l98.012,16.872
	c0.04,1.734,0.35,3.488,0.998,5.199c0.499,1.316,1.172,2.513,1.96,3.603l-65.772,60.477c-3.972-2.356-8.93-2.961-13.571-1.198
	c-6.455,2.448-10.346,8.723-10.1,15.269l-84.436,22.31c-2.413-3.936-6.52-6.784-11.447-7.39
	c-8.583-1.058-16.426,5.065-17.485,13.647c-0.312,2.532,0.014,4.993,0.83,7.241l-28.092,16.127
	c-0.973-1.329-2.161-2.532-3.577-3.535c-5.733-4.056-13.283-3.71-18.591,0.347l-47.383-50.174c0.078-0.104,0.165-0.199,0.243-0.307
	c4.997-7.059,3.316-16.868-3.742-21.866c-7.063-4.993-16.868-3.316-21.865,3.745c-2.803,3.957-3.506,8.789-2.336,13.143l2.347,4.965
	c1,1.416,2.239,2.7,3.729,3.755c1.151,0.813,2.375,1.435,3.64,1.896l-20.804,86.893c-4.61,0.261-9.062,2.528-11.933,6.582
	c-4.992,7.061-3.316,16.87,3.746,21.864c7.058,4.998,16.865,3.319,21.862-3.737c4.996-7.062,3.316-16.873-3.74-21.865
	c-1.398-0.988-2.9-1.704-4.452-2.186l20.737-86.584c0.585,0.001,1.163-0.036,1.743-0.103l15.097,45.985
	c-2.181,1.11-4.13,2.74-5.64,4.874c-4.997,7.062-3.319,16.867,3.739,21.861c7.064,4.999,16.87,3.32,21.866-3.739
	s3.314-16.865-3.743-21.863c-3.315-2.343-7.228-3.202-10.973-2.74l-15.074-45.915c0.532-0.266,1.047-0.568,1.552-0.896
	l47.684,50.485c-4.44,6.998-2.669,16.348,4.166,21.187c7.062,4.997,16.869,3.318,21.868-3.743c2.855-4.035,3.521-8.967,2.254-13.388
	l28.417-16.315c2.463,2.933,5.982,4.989,10.074,5.493c8.583,1.056,16.428-5.066,17.485-13.65c0.209-1.696,0.128-3.358-0.186-4.952
	l83.593-22.085c2.656,6.447,9.174,10.218,15.841,9.643l11.009,47.397c-1.809,0.901-3.473,2.167-4.872,3.791
	c-5.641,6.555-4.902,16.479,1.651,22.122c0.101,0.084,0.206,0.155,0.31,0.237l-33.861,60.135
	c-6.132-2.656-13.542-1.169-18.125,4.153c-5.643,6.556-4.903,16.478,1.65,22.121c6.554,5.646,16.476,4.903,22.122-1.651
	c5.465-6.346,4.925-15.847-1.071-21.563l34.077-60.511c0.568,0.196,1.139,0.367,1.721,0.494l-3.537,48.198
	c-3.744,0.456-7.336,2.236-9.987,5.31c-5.643,6.556-4.906,16.475,1.648,22.12c6.556,5.644,16.475,4.903,22.121-1.652
	c5.644-6.551,4.904-16.474-1.65-22.116c-1.979-1.707-4.265-2.819-6.648-3.371l3.543-48.269c0.579-0.077,1.148-0.18,1.716-0.323
	l41.033,79.016c-1.387,0.841-2.673,1.898-3.789,3.191c-5.642,6.554-4.903,16.477,1.65,22.122c6.555,5.642,16.478,4.902,22.122-1.651
	c5.643-6.556,4.9-16.475-1.651-22.122c-3.763-3.239-8.631-4.365-13.168-3.504l-41.175-79.297c1.114-0.754,2.151-1.651,3.072-2.718
	c1.191-1.386,2.083-2.929,2.713-4.544l1.075-5.383c0.086-4.51-1.764-9.029-5.439-12.194c-3.434-2.958-7.791-4.145-11.975-3.678
	l-10.985-47.286c7.35-3.442,10.939-12.038,8.014-19.75c-0.607-1.599-1.456-3.032-2.476-4.295l65.542-60.262
	c0.485,0.327,0.986,0.621,1.504,0.893l-13.144,46.574c-2.432-0.291-4.96-0.028-7.4,0.899c-8.088,3.067-12.17,12.14-9.104,20.227
	c3.068,8.088,12.142,12.171,20.229,9.102c8.086-3.067,12.168-12.139,9.101-20.227c-1.439-3.796-4.211-6.693-7.573-8.399
	l13.128-46.511c0.589,0.079,1.186,0.112,1.786,0.123l11.374,68.507c-7.589,3.328-11.338,12.073-8.369,19.905
	c3.069,8.088,12.144,12.171,20.229,9.102c8.088-3.067,12.169-12.14,9.104-20.228c-0.113-0.299-0.244-0.586-0.373-0.874
	l42.963-27.203c1.19,1.263,2.594,2.358,4.223,3.196c1.252,0.642,2.552,1.083,3.868,1.363l-8.368,88.957
	c-4.526,0.909-8.616,3.78-10.885,8.198c-3.952,7.689-0.912,17.165,6.782,21.116c7.691,3.956,17.166,0.912,21.119-6.779
	c3.953-7.694,0.911-17.168-6.779-21.121c-1.521-0.781-3.111-1.277-4.715-1.531l8.34-88.644c0.581-0.083,1.149-0.201,1.715-0.346
	l21.42,43.398c-2.002,1.409-3.704,3.299-4.896,5.623c-3.954,7.694-0.913,17.164,6.778,21.119c7.695,3.952,17.168,0.912,21.122-6.782
	c3.952-7.693,0.91-17.164-6.784-21.119c-3.609-1.854-7.608-2.151-11.247-1.168l-21.388-43.336c0.489-0.338,0.956-0.713,1.409-1.106
	l54.314,43.274c-3.41,7.553-0.341,16.559,7.109,20.387c7.693,3.953,17.168,0.91,21.122-6.783c3.951-7.691,0.91-17.165-6.782-21.117
	c-6.248-3.213-13.671-1.806-18.358,2.956l-53.974-43.003c0.063-0.115,0.138-0.223,0.198-0.339c3.952-7.691,0.91-17.167-6.783-21.12
	c-7.692-3.953-17.166-0.91-21.119,6.782c-2.218,4.315-2.231,9.194-0.461,13.341l-43.037,27.249
	c-3.16-3.214-7.604-4.954-12.151-4.683l-11.3-68.077c0.124-0.044,0.248-0.074,0.373-0.121c8.085-3.067,12.168-12.142,9.103-20.228
	c-0.68-1.792-1.668-3.374-2.862-4.739l91.683-110.344c0.524,0.261,1.061,0.486,1.611,0.685l-6.89,47.903
	c-2.447,0.03-4.921,0.626-7.218,1.866c-7.612,4.108-10.461,13.64-6.355,21.251c4.108,7.613,13.641,10.464,21.252,6.356
	s10.461-13.639,6.353-21.253c-1.926-3.571-5.055-6.079-8.613-7.325l6.879-47.836c0.594,0.001,1.19-0.045,1.787-0.114l20.31,66.409
	c-7.084,4.3-9.648,13.464-5.67,20.834c4.108,7.613,13.643,10.463,21.253,6.355c7.611-4.107,10.464-13.639,6.354-21.251
	c-3.335-6.182-10.251-9.223-16.81-7.947l-20.183-65.992c0.118-0.059,0.237-0.106,0.354-0.167c4.294-2.317,7.07-6.362,7.94-10.813
	l52.405,6.535c0.793,4.549,3.562,8.711,7.917,11.088c7.59,4.148,17.138,1.345,21.287-6.244
	C703.913,148.612,701.109,139.062,693.521,134.916z M683.44,52.052c5.298-1.876,11.135,0.916,13.009,6.213
	c1.875,5.301-0.915,11.135-6.214,13.007c-5.3,1.876-11.137-0.911-13.012-6.212C675.351,59.758,678.139,53.924,683.44,52.052z
	 M510.386,186.241c2.67,4.948,0.817,11.146-4.127,13.814c-4.95,2.668-11.146,0.816-13.815-4.13
	c-2.67-4.948-0.816-11.145,4.131-13.815C501.521,179.439,507.715,181.294,510.386,186.241z M524.288,149.396
	c-4.947,2.669-11.145,0.815-13.814-4.13c-2.667-4.948-0.817-11.145,4.133-13.815c4.943-2.668,11.142-0.816,13.81,4.133
	C531.086,140.529,529.232,146.726,524.288,149.396z M315.221,234.804c5.115-2.333,11.173-0.068,13.504,5.048
	c2.333,5.113,0.068,11.172-5.048,13.503c-5.114,2.331-11.173,0.066-13.503-5.045C307.842,243.194,310.107,237.135,315.221,234.804z
	 M451.838,113.775c1.128-5.508,6.527-9.069,12.032-7.941c5.508,1.129,9.067,6.527,7.942,12.034c-1.13,5.508-6.53,9.07-12.035,7.94
	c-4.274-0.877-7.364-4.326-8.01-8.4l0.015-3.261C451.805,114.021,451.813,113.898,451.838,113.775z M423.287,78.201
	c1.131-5.505,6.53-9.069,12.035-7.939c5.506,1.127,9.071,6.526,7.942,12.034c-1.131,5.507-6.528,9.067-12.034,7.939
	C425.724,89.105,422.161,83.708,423.287,78.201z M420.021,13.642c1.129-5.508,6.528-9.07,12.033-7.942
	c5.505,1.127,9.07,6.527,7.942,12.035c-1.129,5.505-6.528,9.068-12.036,7.94C422.455,24.547,418.896,19.147,420.021,13.642z
	 M334.345,44.954c-5.507-1.128-9.068-6.525-7.939-12.031c1.125-5.507,6.524-9.071,12.032-7.942c5.506,1.128,9.07,6.529,7.942,12.036
	C345.25,42.519,339.853,46.083,334.345,44.954z M253.827,106.152c-2.763,4.897-8.992,6.634-13.887,3.871
	c-4.897-2.757-6.634-8.99-3.875-13.887c2.762-4.897,8.992-6.633,13.886-3.872C254.849,95.024,256.587,101.255,253.827,106.152z
	 M174.311,163.004c-3.64,4.285-10.085,4.809-14.37,1.172c-4.287-3.636-4.812-10.084-1.176-14.37
	c3.639-4.286,10.086-4.811,14.368-1.171C177.421,152.271,177.948,158.717,174.311,163.004z M221.422,217.517
	c-2.332-5.116-0.067-11.174,5.047-13.504c5.115-2.333,11.174-0.069,13.506,5.046c2.33,5.113,0.065,11.172-5.049,13.504
	C229.811,224.895,223.753,222.63,221.422,217.517z M35.191,181.298c-4.148,3.795-10.608,3.51-14.4-0.637
	c-3.795-4.149-3.51-10.609,0.637-14.403c4.147-3.798,10.608-3.51,14.403,0.637C39.625,171.042,39.337,177.503,35.191,181.298z
	 M74.314,185.798c-3.794-4.146-3.509-10.608,0.638-14.403c4.149-3.793,10.61-3.51,14.406,0.641
	c3.792,4.144,3.506,10.606-0.642,14.399C84.571,190.23,78.107,189.945,74.314,185.798z M28.806,275.02
	c-4.148,3.797-10.609,3.51-14.403-0.637c-3.797-4.147-3.51-10.605,0.64-14.404c4.142-3.792,10.605-3.508,14.4,0.64
	C33.238,264.764,32.951,271.227,28.806,275.02z M22.562,319.958c-4.148,3.796-10.61,3.634-14.404-0.515
	c-3.796-4.149-3.51-10.545,0.638-14.343c4.145-3.793,10.606-3.476,14.403,0.67c0.083,0.095,0.156-0.036,0.238,0.06l1.686,2.56h0.003
	C26.659,312.39,25.781,317.013,22.562,319.958z M107.661,267.591c-4.147,3.793-10.606,3.506-14.403-0.64
	c-3.792-4.148-3.507-10.61,0.638-14.404c4.147-3.793,10.61-3.508,14.404,0.638C112.095,257.334,111.811,263.795,107.661,267.591z
	 M218.714,273.832c-5.115,2.333-11.174,0.068-13.504-5.045c-2.332-5.116-0.067-11.174,5.047-13.506
	c5.115-2.332,11.173-0.067,13.506,5.048C226.093,265.442,223.829,271.5,218.714,273.832z M351.797,112.292
	c1.128-5.505,6.525-9.067,12.033-7.941c5.504,1.131,9.068,6.528,7.939,12.036c-1.129,5.506-6.528,9.067-12.032,7.941
	C354.229,123.199,350.667,117.801,351.797,112.292z M269.504,198.061c-2.332-5.115-0.067-11.174,5.046-13.505
	c5.116-2.332,11.174-0.068,13.506,5.047c2.333,5.115,0.067,11.174-5.046,13.506C277.896,205.44,271.837,203.177,269.504,198.061z
	 M285.987,323.018c-5.114,2.333-11.173,0.068-13.504-5.048c-2.333-5.114-0.068-11.175,5.046-13.504
	c5.114-2.333,11.173-0.067,13.505,5.046C293.366,314.628,291.101,320.688,285.987,323.018z M342.544,313.43
	c-5.257,1.992-11.155-0.662-13.149-5.917c-1.995-5.256,0.66-11.154,5.916-13.149c5.254-1.993,11.152,0.662,13.145,5.917
	C350.452,305.538,347.795,311.437,342.544,313.43z M354.372,260.659c-0.057-0.112-0.121-0.263-0.174-0.377
	c-0.136-0.297-0.252-0.62-0.357-0.923c-0.022-0.064-0.042-0.139-0.062-0.203c-0.078-0.242-0.146-0.49-0.206-0.734
	c-0.03-0.126-0.056-0.255-0.081-0.381c-0.037-0.184-0.071-0.37-0.098-0.554c-0.027-0.188-0.047-0.376-0.062-0.564
	c-0.011-0.123-0.022-0.247-0.028-0.37c-0.012-0.253-0.015-0.507-0.008-0.758c0.001-0.056,0.001-0.112,0.003-0.167
	c0.173-3.948,2.645-7.613,6.566-9.1c5.25-1.991,11.142,0.655,13.142,5.901c0.003,0.007,0.006,0.015,0.009,0.022
	c0.109,0.288,0.199,0.578,0.28,0.868c0.017,0.061,0.036,0.12,0.051,0.18c0.059,0.228,0.104,0.457,0.146,0.686
	c0.023,0.128,0.05,0.257,0.068,0.386c0.023,0.154,0.036,0.308,0.051,0.462c0.02,0.205,0.04,0.41,0.047,0.615
	c0.003,0.074,0.001,0.146,0.002,0.22c0.049,3.919-2.169,7.779-5.958,9.506c-3.97,1.809-8.501,1.016-11.423-1.984h0.001
	L354.372,260.659z M147.959,458.341c4.587,3.252,5.679,9.626,2.432,14.213c-3.249,4.589-9.625,5.679-14.211,2.433
	c-4.588-3.246-5.679-9.624-2.431-14.211C136.996,456.188,143.37,455.095,147.959,458.341z M197.31,416.593
	c4.585,3.247,5.676,9.619,2.432,14.209c-3.25,4.588-9.625,5.68-14.21,2.429c-4.589-3.241-5.68-9.619-2.436-14.209
	C186.345,414.434,192.721,413.347,197.31,416.593z M175.748,355.319c-3.249,4.585-9.625,5.677-14.213,2.434
	c-4.587-3.251-5.678-9.625-2.432-14.212c3.249-4.589,9.623-5.682,14.212-2.434C177.901,344.354,178.993,350.729,175.748,355.319z
	 M245.219,427.317c-3.246,4.587-9.619,5.68-14.212,2.433c-4.585-3.249-5.68-9.624-2.429-14.209c0.073-0.104,0.156-0.193,0.234-0.297
	l2.369-2.241c3.417-2.313,8.046-2.418,11.608,0.103C247.374,416.354,248.468,422.727,245.219,427.317z M302.486,391.956
	c-0.688,5.579-5.786,9.561-11.365,8.871c-5.578-0.685-9.557-5.785-8.872-11.364c0.686-5.578,5.785-9.558,11.363-8.87
	C299.192,381.278,303.173,386.378,302.486,391.956z M382.906,529.956c-3.67,4.262-10.117,4.74-14.38,1.075
	c-4.26-3.672-4.739-10.123-1.072-14.379c2.85-3.307,7.367-4.325,11.239-2.904l2.842,1.602c0.098,0.082,0.203,0.149,0.296,0.23
	C386.093,519.246,386.572,525.696,382.906,529.956z M484.781,536.572c4.258,3.667,4.742,10.119,1.073,14.377
	c-3.666,4.259-10.118,4.743-14.38,1.072c-4.258-3.668-4.739-10.118-1.07-14.377C474.072,533.385,480.519,532.906,484.781,536.572z
	 M426.807,507.975c4.259,3.67,4.743,10.12,1.071,14.376c-3.666,4.263-10.118,4.742-14.376,1.075
	c-4.26-3.67-4.74-10.117-1.072-14.376S422.547,504.308,426.807,507.975z M431.86,428.935c4.259,3.666,4.74,10.115,1.073,14.375
	c-3.667,4.259-10.118,4.738-14.38,1.072c-4.257-3.668-4.738-10.118-1.072-14.377C421.15,425.744,427.6,425.263,431.86,428.935z
	 M409.446,369.15c-5.257,1.995-11.155-0.662-13.149-5.916c-1.994-5.255,0.661-11.152,5.917-13.146
	c5.257-1.994,11.154,0.659,13.149,5.915C417.354,361.26,414.702,367.156,409.446,369.15z M479.614,348.915
	c1.994,5.255-0.66,11.153-5.914,13.146c-5.258,1.996-11.155-0.658-13.148-5.915c-1.993-5.255,0.661-11.152,5.917-13.147
	C471.721,341.006,477.619,343.66,479.614,348.915z M574.464,441.203c4.999,2.569,6.977,8.729,4.407,13.727
	c-2.568,5.001-8.728,6.977-13.728,4.409c-4.999-2.568-6.977-8.727-4.407-13.728C563.307,440.611,569.464,438.633,574.464,441.203z
	 M617.446,392.922c5.001,2.569,6.977,8.726,4.408,13.726c-2.568,4.999-8.726,6.977-13.727,4.407
	c-4.999-2.568-6.976-8.727-4.407-13.728C606.288,392.329,612.447,390.354,617.446,392.922z M648.256,387.479
	c0.058-0.111,0.261-0.215,0.321-0.325l2.167-2.551v-0.002c3-2.77,7.492-3.524,11.371-1.531c5,2.568,6.911,8.729,4.342,13.729
	s-8.76,6.977-13.761,4.407C647.698,398.637,645.686,392.478,648.256,387.479z M569.339,325.974c2.57-5,8.728-6.978,13.728-4.408
	c5,2.569,6.977,8.727,4.407,13.727c-2.569,5.001-8.728,6.977-13.728,4.41C568.748,337.131,566.77,330.975,569.339,325.974z
	 M506.501,365.383l3.217-0.534c4.128-0.014,8.026,2.486,9.573,6.564c1.995,5.255-0.66,11.155-5.916,13.149
	c-5.257,1.992-11.152-0.66-13.149-5.916c-1.992-5.255,0.662-11.153,5.919-13.148C506.263,365.454,506.382,365.425,506.501,365.383z
	 M495.931,286.041c-5.254,1.995-11.152-0.66-13.146-5.915c-1.994-5.256,0.659-11.154,5.917-13.147
	c5.255-1.995,11.151,0.66,13.147,5.916C503.842,278.149,501.188,284.047,495.931,286.041z M599.725,215.279
	c2.672,4.948,0.816,11.144-4.128,13.812c-4.947,2.67-11.143,0.818-13.814-4.131c-2.667-4.944-0.816-11.141,4.133-13.812
	C590.86,208.479,597.057,210.334,599.725,215.279z M628.211,228.22c0.111-0.061,0.227,0.038,0.339-0.019l3.121-0.812h-0.003
	c4.088-1,8.285,1.263,10.357,5.103c2.669,4.947,0.816,11.072-4.133,13.742c-4.947,2.669-11.142,0.781-13.812-4.167
	C621.412,237.122,623.264,230.89,628.211,228.22z M607.61,150.803c-4.947,2.669-11.145,0.817-13.814-4.129
	c-2.667-4.947-0.816-11.143,4.13-13.812c4.948-2.67,11.146-0.818,13.815,4.13C614.41,141.938,612.556,148.133,607.61,150.803z
	 M694.949,153.568c-2.695,4.935-8.901,6.755-13.834,4.059c-4.935-2.693-6.756-8.901-4.062-13.834
	c2.697-4.934,8.901-6.753,13.834-4.058C695.822,142.428,697.64,148.637,694.949,153.568z"/>
</svg>
